<mxfile host="65bd71144e">
    <diagram id="fjN8D4Odn0497USpxgly" name="Page-1">
        <mxGraphModel dx="2487" dy="779" grid="1" gridSize="10" guides="1" tooltips="1" connect="1" arrows="1" fold="1" page="1" pageScale="1" pageWidth="1169" pageHeight="827" background="#FFFFFF" math="0" shadow="0">
            <root>
                <mxCell id="0"/>
                <mxCell id="1" parent="0"/>
                <mxCell id="350" value="" style="rounded=0;whiteSpace=wrap;html=1;verticalAlign=top;" parent="1" vertex="1">
                    <mxGeometry x="-960" y="400" width="750" height="120" as="geometry"/>
                </mxCell>
                <mxCell id="335" style="edgeStyle=elbowEdgeStyle;rounded=0;html=1;fillColor=#fff2cc;strokeColor=#d6b656;" parent="1" source="378" target="337" edge="1">
                    <mxGeometry relative="1" as="geometry">
                        <mxPoint x="-970" y="339" as="sourcePoint"/>
                        <mxPoint x="-1089" y="454" as="targetPoint"/>
                        <Array as="points">
                            <mxPoint x="-949" y="339"/>
                            <mxPoint x="-889" y="289"/>
                            <mxPoint x="-959" y="339"/>
                            <mxPoint x="-1049" y="409"/>
                        </Array>
                    </mxGeometry>
                </mxCell>
                <mxCell id="336" value="No" style="edgeStyle=elbowEdgeStyle;rounded=0;html=1;" parent="1" source="337" target="339" edge="1">
                    <mxGeometry relative="1" as="geometry">
                        <mxPoint x="-964" y="454" as="targetPoint"/>
                        <mxPoint x="-959" y="454" as="sourcePoint"/>
                    </mxGeometry>
                </mxCell>
                <mxCell id="337" value="&lt;b&gt;path&lt;/b&gt;&lt;br&gt;contains&lt;br&gt;CN?" style="rhombus;whiteSpace=wrap;html=1;" parent="1" vertex="1">
                    <mxGeometry x="-929" y="299" width="80" height="80" as="geometry"/>
                </mxCell>
                <mxCell id="339" value="Foreach&lt;br&gt;CN&lt;br&gt;as &lt;b&gt;rg&lt;/b&gt;" style="shape=hexagon;perimeter=hexagonPerimeter2;whiteSpace=wrap;html=1;fixedSize=1;" parent="1" vertex="1">
                    <mxGeometry x="-949" y="419.75" width="120" height="80.5" as="geometry"/>
                </mxCell>
                <mxCell id="340" style="edgeStyle=elbowEdgeStyle;rounded=0;html=1;" parent="1" source="339" target="343" edge="1">
                    <mxGeometry relative="1" as="geometry">
                        <mxPoint x="-819" y="455.75" as="targetPoint"/>
                        <mxPoint x="-639" y="805.75" as="sourcePoint"/>
                        <Array as="points">
                            <mxPoint x="-819" y="459.75"/>
                            <mxPoint x="-739" y="520.75"/>
                        </Array>
                    </mxGeometry>
                </mxCell>
                <mxCell id="341" value="&lt;b&gt;path&lt;br&gt;&lt;/b&gt;contains&lt;br&gt;CS?" style="rhombus;whiteSpace=wrap;html=1;" parent="1" vertex="1">
                    <mxGeometry x="-779" y="298.5" width="80" height="80" as="geometry"/>
                </mxCell>
                <mxCell id="342" value="No" style="edgeStyle=elbowEdgeStyle;rounded=0;html=1;" parent="1" source="341" target="343" edge="1">
                    <mxGeometry relative="1" as="geometry">
                        <mxPoint x="-989" y="569" as="targetPoint"/>
                        <mxPoint x="-999" y="464" as="sourcePoint"/>
                        <Array as="points">
                            <mxPoint x="-739" y="409"/>
                            <mxPoint x="-769" y="399"/>
                            <mxPoint x="-679" y="429"/>
                        </Array>
                    </mxGeometry>
                </mxCell>
                <mxCell id="343" value="Foreach&lt;br&gt;CS&lt;br&gt;in &lt;b&gt;rg&lt;/b&gt;&lt;br&gt;as &lt;b&gt;cs&lt;/b&gt;" style="shape=hexagon;perimeter=hexagonPerimeter2;whiteSpace=wrap;html=1;fixedSize=1;" parent="1" vertex="1">
                    <mxGeometry x="-799" y="419.75" width="120" height="80.5" as="geometry"/>
                </mxCell>
                <mxCell id="344" value="&lt;b&gt;path&lt;/b&gt;&lt;br&gt;contains&lt;br&gt;SI?" style="rhombus;whiteSpace=wrap;html=1;" parent="1" vertex="1">
                    <mxGeometry x="-630" y="298.5" width="80" height="80" as="geometry"/>
                </mxCell>
                <mxCell id="346" style="edgeStyle=elbowEdgeStyle;rounded=0;html=1;" parent="1" source="343" target="348" edge="1">
                    <mxGeometry relative="1" as="geometry">
                        <mxPoint x="-819" y="575.75" as="targetPoint"/>
                        <mxPoint x="-909" y="610.75" as="sourcePoint"/>
                    </mxGeometry>
                </mxCell>
                <mxCell id="347" value="No" style="edgeStyle=elbowEdgeStyle;rounded=0;html=1;" parent="1" source="344" target="348" edge="1">
                    <mxGeometry relative="1" as="geometry">
                        <mxPoint x="-989" y="689" as="targetPoint"/>
                        <mxPoint x="-1009" y="689" as="sourcePoint"/>
                        <Array as="points"/>
                    </mxGeometry>
                </mxCell>
                <mxCell id="348" value="Foreach&lt;br&gt;SI&lt;br&gt;in &lt;b&gt;cs&lt;/b&gt;&lt;br&gt;as &lt;b&gt;si&lt;/b&gt;" style="shape=hexagon;perimeter=hexagonPerimeter2;whiteSpace=wrap;html=1;fixedSize=1;" parent="1" vertex="1">
                    <mxGeometry x="-650" y="419.75" width="120" height="80.5" as="geometry"/>
                </mxCell>
                <mxCell id="349" value="" style="edgeStyle=elbowEdgeStyle;rounded=0;html=1;elbow=vertical;" parent="1" source="348" target="353" edge="1">
                    <mxGeometry relative="1" as="geometry">
                        <mxPoint x="-458.88" y="380.25" as="targetPoint"/>
                        <mxPoint x="-529.0042236024846" y="380.25" as="sourcePoint"/>
                        <Array as="points">
                            <mxPoint x="-530" y="451.75"/>
                            <mxPoint x="-460" y="270.75"/>
                            <mxPoint x="-500" y="441.75"/>
                            <mxPoint x="-490" y="459.75"/>
                            <mxPoint x="-499" y="459.75"/>
                            <mxPoint x="-498.88" y="380.25"/>
                            <mxPoint x="-908.88" y="711.25"/>
                            <mxPoint x="-978.88" y="681.25"/>
                            <mxPoint x="-978.88" y="681.25"/>
                            <mxPoint x="-1118.88" y="711.25"/>
                            <mxPoint x="-958.88" y="651.25"/>
                            <mxPoint x="-1088.88" y="721.25"/>
                            <mxPoint x="-1098.88" y="741.25"/>
                        </Array>
                    </mxGeometry>
                </mxCell>
                <mxCell id="351" value="" style="edgeStyle=elbowEdgeStyle;rounded=0;html=1;" parent="1" source="353" target="354" edge="1">
                    <mxGeometry relative="1" as="geometry">
                        <mxPoint x="-260" y="360" as="targetPoint"/>
                        <mxPoint as="offset"/>
                        <mxPoint x="-391.88" y="312.75" as="sourcePoint"/>
                        <Array as="points">
                            <mxPoint x="-370" y="460"/>
                            <mxPoint x="-270" y="350"/>
                            <mxPoint x="-370" y="460"/>
                            <mxPoint x="-360" y="460"/>
                            <mxPoint x="-360" y="470"/>
                            <mxPoint x="-360" y="458"/>
                            <mxPoint x="-220" y="438"/>
                            <mxPoint x="-310" y="484"/>
                            <mxPoint x="-490" y="380"/>
                            <mxPoint x="-383.88" y="339"/>
                            <mxPoint x="-428.88" y="349"/>
                        </Array>
                    </mxGeometry>
                </mxCell>
                <mxCell id="352" value="&lt;b&gt;si&lt;/b&gt;-&amp;gt;commit_cb(&lt;b&gt;path&lt;/b&gt;)" style="rounded=0;whiteSpace=wrap;html=1;" parent="1" vertex="1">
                    <mxGeometry x="-350" y="470.25" width="130" height="40" as="geometry"/>
                </mxCell>
                <mxCell id="353" value="Foreach config parameter in &lt;b&gt;cs&lt;/b&gt; or &lt;b&gt;cg&lt;/b&gt;&amp;nbsp;as&lt;br&gt;&lt;b&gt;param&lt;/b&gt;" style="shape=hexagon;perimeter=hexagonPerimeter2;whiteSpace=wrap;html=1;fixedSize=1;" parent="1" vertex="1">
                    <mxGeometry x="-500" y="419.75" width="120" height="80.5" as="geometry"/>
                </mxCell>
                <mxCell id="354" value="get &lt;b&gt;path&lt;/b&gt; of&amp;nbsp;&lt;b&gt;param&lt;/b&gt;" style="rounded=0;whiteSpace=wrap;html=1;" parent="1" vertex="1">
                    <mxGeometry x="-350" y="410" width="130" height="40" as="geometry"/>
                </mxCell>
                <mxCell id="355" value="" style="edgeStyle=elbowEdgeStyle;rounded=0;html=1;" parent="1" source="354" target="352" edge="1">
                    <mxGeometry relative="1" as="geometry">
                        <mxPoint x="-335" y="488.75" as="targetPoint"/>
                        <mxPoint as="offset"/>
                        <mxPoint x="-378" y="488.75" as="sourcePoint"/>
                    </mxGeometry>
                </mxCell>
                <mxCell id="358" value="All configuration changes for &quot;path&quot; take effect" style="rounded=1;whiteSpace=wrap;html=1;arcSize=50;fillColor=#d5e8d4;strokeColor=#82b366;" parent="1" vertex="1">
                    <mxGeometry x="-675" y="640" width="180" height="40" as="geometry"/>
                </mxCell>
                <mxCell id="359" style="edgeStyle=elbowEdgeStyle;rounded=0;html=1;fillColor=#d5e8d4;strokeColor=#82b366;" parent="1" source="360" target="358" edge="1">
                    <mxGeometry relative="1" as="geometry">
                        <mxPoint x="-480" y="669.75" as="targetPoint"/>
                        <mxPoint x="-395" y="695.25" as="sourcePoint"/>
                    </mxGeometry>
                </mxCell>
                <mxCell id="360" value="Modules/drivers apply changes" style="rounded=0;whiteSpace=wrap;html=1;" parent="1" vertex="1">
                    <mxGeometry x="-680" y="560" width="190" height="42" as="geometry"/>
                </mxCell>
                <mxCell id="361" style="edgeStyle=elbowEdgeStyle;rounded=0;html=1;exitX=0.5;exitY=1;exitDx=0;exitDy=0;" parent="1" source="350" target="360" edge="1">
                    <mxGeometry relative="1" as="geometry">
                        <mxPoint x="-704.1107692307695" y="718.4999999999998" as="targetPoint"/>
                        <mxPoint x="-478.8800000000001" y="620" as="sourcePoint"/>
                        <Array as="points">
                            <mxPoint x="-585" y="540"/>
                            <mxPoint x="-550" y="590"/>
                            <mxPoint x="-383.88" y="649.5"/>
                        </Array>
                    </mxGeometry>
                </mxCell>
                <mxCell id="362" value="Return&lt;br&gt;ENOTFOUND" style="rounded=1;whiteSpace=wrap;html=1;arcSize=50;fillColor=#f8cecc;strokeColor=#b85450;" parent="1" vertex="1">
                    <mxGeometry x="-799" y="80" width="120" height="40" as="geometry"/>
                </mxCell>
                <mxCell id="363" value="Yes" style="edgeStyle=elbowEdgeStyle;rounded=0;html=1;fillColor=#cdeb8b;strokeColor=#36393d;" parent="1" source="337" target="366" edge="1">
                    <mxGeometry x="-0.3333" relative="1" as="geometry">
                        <mxPoint x="-769" y="348.5" as="targetPoint"/>
                        <mxPoint x="-839" y="349" as="sourcePoint"/>
                        <Array as="points">
                            <mxPoint x="-889" y="279"/>
                        </Array>
                        <mxPoint as="offset"/>
                    </mxGeometry>
                </mxCell>
                <mxCell id="366" value="CN exists&lt;br&gt;in registry?" style="rhombus;whiteSpace=wrap;html=1;" parent="1" vertex="1">
                    <mxGeometry x="-929" y="179" width="80" height="80" as="geometry"/>
                </mxCell>
                <mxCell id="367" value="Yes" style="rounded=0;html=1;edgeStyle=elbowEdgeStyle;" parent="1" source="366" target="341" edge="1">
                    <mxGeometry x="-0.3333" relative="1" as="geometry">
                        <mxPoint x="-879" y="269" as="targetPoint"/>
                        <mxPoint x="-879" y="309" as="sourcePoint"/>
                        <mxPoint as="offset"/>
                    </mxGeometry>
                </mxCell>
                <mxCell id="368" value="No" style="edgeStyle=elbowEdgeStyle;rounded=0;html=1;fillColor=#f8cecc;strokeColor=#b85450;" parent="1" source="366" target="362" edge="1">
                    <mxGeometry x="-0.7751" relative="1" as="geometry">
                        <mxPoint x="-879" y="249" as="targetPoint"/>
                        <mxPoint x="-888.9999999999998" y="159" as="sourcePoint"/>
                        <Array as="points">
                            <mxPoint x="-889" y="100"/>
                            <mxPoint x="-889" y="120"/>
                            <mxPoint x="-889" y="110"/>
                            <mxPoint x="-859" y="110"/>
                            <mxPoint x="-889" y="119"/>
                        </Array>
                        <mxPoint as="offset"/>
                    </mxGeometry>
                </mxCell>
                <mxCell id="370" value="Yes" style="edgeStyle=elbowEdgeStyle;rounded=0;html=1;" parent="1" source="341" target="371" edge="1">
                    <mxGeometry x="-0.3333" relative="1" as="geometry">
                        <mxPoint x="-619" y="349" as="targetPoint"/>
                        <mxPoint x="-739" y="300" as="sourcePoint"/>
                        <Array as="points">
                            <mxPoint x="-739" y="279.5"/>
                        </Array>
                        <mxPoint as="offset"/>
                    </mxGeometry>
                </mxCell>
                <mxCell id="371" value="CS exists&lt;br&gt;in registry?" style="rhombus;whiteSpace=wrap;html=1;" parent="1" vertex="1">
                    <mxGeometry x="-779" y="179.5" width="80" height="80" as="geometry"/>
                </mxCell>
                <mxCell id="372" value="Yes" style="rounded=0;html=1;edgeStyle=elbowEdgeStyle;" parent="1" source="371" target="344" edge="1">
                    <mxGeometry x="-0.3333" relative="1" as="geometry">
                        <mxPoint x="-628.9999999999998" y="339" as="targetPoint"/>
                        <mxPoint x="-729" y="309.5" as="sourcePoint"/>
                        <mxPoint as="offset"/>
                    </mxGeometry>
                </mxCell>
                <mxCell id="373" value="No" style="edgeStyle=elbowEdgeStyle;rounded=0;html=1;fillColor=#f8cecc;strokeColor=#b85450;" parent="1" source="371" target="362" edge="1">
                    <mxGeometry x="-0.3445" relative="1" as="geometry">
                        <mxPoint x="-648.9999999999998" y="119.5" as="targetPoint"/>
                        <mxPoint x="-738.9999999999998" y="159.5" as="sourcePoint"/>
                        <Array as="points">
                            <mxPoint x="-739" y="119.5"/>
                        </Array>
                        <mxPoint as="offset"/>
                    </mxGeometry>
                </mxCell>
                <mxCell id="374" value="Yes" style="edgeStyle=elbowEdgeStyle;rounded=0;html=1;" parent="1" source="344" target="375" edge="1">
                    <mxGeometry x="-0.3333" relative="1" as="geometry">
                        <mxPoint x="-468.88" y="349" as="targetPoint"/>
                        <mxPoint x="-588.8799999999998" y="299.5" as="sourcePoint"/>
                        <Array as="points">
                            <mxPoint x="-590" y="270"/>
                            <mxPoint x="-580" y="270"/>
                            <mxPoint x="-589" y="279"/>
                            <mxPoint x="-549" y="289"/>
                        </Array>
                        <mxPoint as="offset"/>
                    </mxGeometry>
                </mxCell>
                <mxCell id="375" value="SI exists&lt;br&gt;in registry?" style="rhombus;whiteSpace=wrap;html=1;" parent="1" vertex="1">
                    <mxGeometry x="-630" y="179.5" width="80" height="80" as="geometry"/>
                </mxCell>
                <mxCell id="376" value="Yes" style="rounded=0;html=1;edgeStyle=elbowEdgeStyle;" parent="1" source="375" target="383" edge="1">
                    <mxGeometry x="-0.8779" relative="1" as="geometry">
                        <mxPoint x="-478.87999999999977" y="339" as="targetPoint"/>
                        <mxPoint x="-578.88" y="309.5" as="sourcePoint"/>
                        <mxPoint as="offset"/>
                        <Array as="points">
                            <mxPoint x="-520" y="339"/>
                            <mxPoint x="-440" y="350"/>
                        </Array>
                    </mxGeometry>
                </mxCell>
                <mxCell id="377" value="No" style="edgeStyle=elbowEdgeStyle;rounded=0;html=1;fillColor=#f8cecc;strokeColor=#b85450;" parent="1" source="375" target="362" edge="1">
                    <mxGeometry x="-0.7685" relative="1" as="geometry">
                        <mxPoint x="-498.87999999999977" y="139.5" as="targetPoint"/>
                        <mxPoint x="-578.88" y="309.5" as="sourcePoint"/>
                        <Array as="points">
                            <mxPoint x="-590" y="100"/>
                            <mxPoint x="-590" y="120"/>
                            <mxPoint x="-580" y="120"/>
                            <mxPoint x="-589" y="120"/>
                            <mxPoint x="-589" y="120"/>
                            <mxPoint x="-589" y="120"/>
                            <mxPoint x="-630" y="120"/>
                            <mxPoint x="-589" y="110"/>
                            <mxPoint x="-588.88" y="139.5"/>
                        </Array>
                        <mxPoint as="offset"/>
                    </mxGeometry>
                </mxCell>
                <mxCell id="378" value="&lt;span style=&quot;text-align: left&quot;&gt;registry_commit(&lt;/span&gt;&lt;b style=&quot;text-align: left&quot;&gt;path&lt;/b&gt;&lt;span style=&quot;text-align: left&quot;&gt;)&lt;/span&gt;" style="rounded=1;whiteSpace=wrap;html=1;arcSize=50;fillColor=#fff2cc;strokeColor=#d6b656;" parent="1" vertex="1">
                    <mxGeometry x="-1120" y="319" width="150" height="40" as="geometry"/>
                </mxCell>
                <mxCell id="380" value="Yes" style="rounded=0;html=1;edgeStyle=elbowEdgeStyle;" parent="1" source="383" target="381" edge="1">
                    <mxGeometry x="-0.3333" relative="1" as="geometry">
                        <mxPoint x="-440.33333333333326" y="259.4999999999998" as="targetPoint"/>
                        <mxPoint x="-128.8571428571429" y="118.35714285714289" as="sourcePoint"/>
                        <mxPoint as="offset"/>
                    </mxGeometry>
                </mxCell>
                <mxCell id="381" value="&lt;b&gt;path&lt;/b&gt;&lt;br&gt;element is&lt;br&gt;CG?" style="rhombus;whiteSpace=wrap;html=1;" parent="1" vertex="1">
                    <mxGeometry x="-480" y="179" width="80" height="80" as="geometry"/>
                </mxCell>
                <mxCell id="383" value="&lt;font style=&quot;font-size: 12px&quot;&gt;has &lt;br&gt;next&amp;nbsp;&lt;b&gt;path&amp;nbsp;&lt;br&gt;&lt;/b&gt;element?&lt;br&gt;&lt;br&gt;&lt;/font&gt;" style="rhombus;whiteSpace=wrap;html=1;verticalAlign=middle;horizontal=1;" parent="1" vertex="1">
                    <mxGeometry x="-480" y="298.5" width="80" height="80" as="geometry"/>
                </mxCell>
                <mxCell id="384" value="Yes" style="rounded=0;html=1;edgeStyle=elbowEdgeStyle;" parent="1" source="381" target="383" edge="1">
                    <mxGeometry x="-0.3333" relative="1" as="geometry">
                        <mxPoint x="-119.83333333333326" y="170" as="targetPoint"/>
                        <mxPoint x="-119.83333333333326" y="129.83333333333303" as="sourcePoint"/>
                        <mxPoint as="offset"/>
                        <Array as="points">
                            <mxPoint x="-370" y="219"/>
                            <mxPoint x="-370" y="250"/>
                            <mxPoint x="-60" y="180"/>
                        </Array>
                    </mxGeometry>
                </mxCell>
                <mxCell id="385" value="No" style="rounded=0;html=1;edgeStyle=elbowEdgeStyle;" parent="1" source="381" target="386" edge="1">
                    <mxGeometry x="-0.3333" relative="1" as="geometry">
                        <mxPoint x="-40" y="410" as="targetPoint"/>
                        <mxPoint x="-80.00000000000023" y="290" as="sourcePoint"/>
                        <mxPoint as="offset"/>
                        <Array as="points">
                            <mxPoint x="-440" y="90"/>
                            <mxPoint x="-190" y="210"/>
                            <mxPoint x="-130" y="360"/>
                            <mxPoint x="30" y="390"/>
                            <mxPoint x="-50" y="190"/>
                        </Array>
                    </mxGeometry>
                </mxCell>
                <mxCell id="386" value="&lt;b&gt;path&lt;/b&gt;&lt;br&gt;elemet is&lt;br&gt;&lt;b&gt;param&lt;/b&gt;?" style="rhombus;whiteSpace=wrap;html=1;" parent="1" vertex="1">
                    <mxGeometry x="-480" y="60" width="80" height="80" as="geometry"/>
                </mxCell>
                <mxCell id="387" value="Yes" style="rounded=0;html=1;edgeStyle=elbowEdgeStyle;" parent="1" source="386" target="354" edge="1">
                    <mxGeometry x="-0.3333" relative="1" as="geometry">
                        <mxPoint x="-130" y="480" as="targetPoint"/>
                        <mxPoint x="-120.00000000000023" y="330" as="sourcePoint"/>
                        <mxPoint as="offset"/>
                        <Array as="points">
                            <mxPoint x="-285" y="270"/>
                            <mxPoint x="40" y="400"/>
                            <mxPoint x="40" y="400"/>
                            <mxPoint x="-40" y="200"/>
                        </Array>
                    </mxGeometry>
                </mxCell>
                <mxCell id="388" value="No" style="rounded=0;html=1;edgeStyle=elbowEdgeStyle;" parent="1" source="383" target="353" edge="1">
                    <mxGeometry x="0.0424" relative="1" as="geometry">
                        <mxPoint x="-390" y="348.5" as="targetPoint"/>
                        <mxPoint x="-390" y="160" as="sourcePoint"/>
                        <mxPoint as="offset"/>
                        <Array as="points">
                            <mxPoint x="-440" y="400"/>
                            <mxPoint x="-50" y="190"/>
                        </Array>
                    </mxGeometry>
                </mxCell>
                <mxCell id="389" value="No" style="edgeStyle=elbowEdgeStyle;rounded=0;html=1;fillColor=#f8cecc;strokeColor=#b85450;" parent="1" source="386" target="362" edge="1">
                    <mxGeometry x="-0.8662" relative="1" as="geometry">
                        <mxPoint x="-669" y="130" as="targetPoint"/>
                        <mxPoint x="-579" y="189.6199999999999" as="sourcePoint"/>
                        <Array as="points">
                            <mxPoint x="-520" y="100"/>
                            <mxPoint x="-590" y="120"/>
                            <mxPoint x="-579" y="130"/>
                            <mxPoint x="-620" y="130"/>
                            <mxPoint x="-579" y="120"/>
                            <mxPoint x="-578.88" y="149.5"/>
                        </Array>
                        <mxPoint as="offset"/>
                    </mxGeometry>
                </mxCell>
            </root>
        </mxGraphModel>
    </diagram>
</mxfile>